<?xml version="1.0" standalone="no"?>
<!DOCTYPE svg PUBLIC "-//W3C//DTD SVG 20010904//EN"
 "http://www.w3.org/TR/2001/REC-SVG-20010904/DTD/svg10.dtd">
<svg version="1.0" xmlns="http://www.w3.org/2000/svg"
 width="512.000000pt" height="512.000000pt" viewBox="0 0 512.000000 512.000000"
 preserveAspectRatio="xMidYMid meet">

<g transform="translate(0.000000,512.000000) scale(0.100000,-0.100000)"
fill="#000000" stroke="none">
<path d="M2207 5109 c-138 -32 -248 -173 -288 -366 -7 -35 -16 -63 -20 -63 -3
0 -18 17 -32 38 -36 56 -114 130 -159 153 -22 11 -60 23 -86 25 -63 8 -144
-34 -187 -95 -25 -36 -30 -52 -30 -104 0 -99 56 -187 200 -315 104 -93 119
-100 188 -93 l58 6 -88 62 c-105 74 -217 184 -255 250 -48 84 -32 160 42 198
96 50 206 -32 313 -231 63 -118 99 -111 111 22 14 170 65 302 144 377 104 96
253 90 304 -13 62 -122 -33 -409 -213 -642 l-21 -28 50 0 50 0 45 68 c157 237
225 507 161 635 -52 102 -160 146 -287 116z"/>
<path d="M1865 4203 c-164 -3 -401 -21 -515 -38 -127 -19 -222 -47 -324 -94
-300 -139 -496 -369 -590 -693 -73 -251 -153 -1157 -126 -1421 38 -374 230
-631 550 -736 52 -17 72 -19 100 -11 52 15 160 12 213 -6 62 -21 128 -81 163
-149 16 -30 36 -57 45 -60 40 -13 99 35 99 81 0 36 -60 143 -109 193 -69 71
-121 95 -202 93 -54 -1 -70 3 -84 18 -16 18 -17 21 -1 45 15 23 22 25 91 25
66 0 82 -4 146 -37 69 -36 74 -41 84 -83 24 -94 85 -174 164 -215 l31 -16 0
-133 0 -133 -107 -6 c-60 -4 -270 -10 -468 -13 -404 -8 -460 -2 -564 57 -224
128 -299 443 -156 650 20 27 24 42 18 54 -9 15 -14 12 -38 -17 -72 -85 -108
-237 -85 -366 26 -153 131 -302 258 -366 110 -56 149 -59 582 -52 217 3 429 9
471 12 l76 7 5 -75 c3 -46 11 -84 22 -100 28 -43 95 -70 175 -70 78 0 115 15
155 62 23 28 26 40 26 109 l0 78 38 7 c20 3 76 6 124 6 77 0 103 -5 215 -43
71 -24 170 -54 221 -67 l92 -22 0 -220 c0 -259 2 -266 87 -305 47 -22 65 -25
123 -21 77 6 129 32 148 73 8 17 12 95 12 230 l0 205 53 0 c136 0 469 47 762
106 151 31 483 112 528 130 15 6 17 -8 17 -149 0 -143 2 -156 22 -182 70 -89
286 -86 333 6 12 22 15 73 15 245 l0 217 59 53 c81 74 104 126 99 223 -7 139
-62 206 -215 265 -37 14 -92 31 -121 38 -42 9 -51 15 -46 27 39 95 148 392
195 531 69 206 76 264 33 307 -25 25 -29 26 -107 20 -45 -3 -253 -29 -461 -57
-208 -27 -386 -50 -395 -50 -15 0 -19 25 -30 188 -15 221 -44 491 -71 646 -70
406 -307 722 -658 876 -115 51 -215 76 -379 95 -117 14 -619 38 -663 33 -8 -1
-69 -3 -135 -5z m560 -74 c517 -40 849 -180 931 -394 30 -81 -11 -122 -112
-112 -58 6 -99 25 -195 89 -199 134 -553 208 -999 208 -446 0 -800 -74 -999
-208 -99 -66 -139 -84 -200 -89 -107 -8 -141 37 -98 131 84 184 374 315 812
367 213 25 596 29 860 8z m-155 -269 c622 -54 989 -304 1075 -729 24 -118 17
-422 -13 -532 -80 -299 -306 -448 -782 -516 -103 -15 -194 -18 -510 -18 -348
1 -399 3 -525 23 -193 30 -312 64 -432 122 -181 88 -284 217 -328 410 -23 101
-32 374 -15 477 66 410 396 671 945 747 186 26 399 32 585 16z m2474 -1430
c22 -22 5 -118 -50 -279 -118 -348 -276 -736 -322 -790 -23 -27 -42 -36 -122
-56 -212 -55 -980 -194 -1342 -245 l-147 -20 -93 24 c-170 45 -495 165 -674
250 -99 48 -115 58 -109 75 8 26 -13 37 -32 18 -46 -46 24 -94 302 -205 296
-118 536 -192 623 -192 128 0 1082 164 1431 246 172 40 180 46 236 158 33 67
53 96 65 96 43 0 179 -34 228 -57 29 -14 60 -36 68 -49 15 -22 15 -26 -3 -55
-23 -41 -109 -98 -198 -133 -336 -133 -993 -274 -1424 -308 -399 -30 -835 72
-1291 303 -251 127 -410 236 -410 280 0 27 49 47 143 56 l75 8 -74 63 c-75 63
-84 78 -62 100 21 21 41 13 103 -39 123 -104 305 -240 340 -255 70 -29 140 17
116 76 -5 14 -66 94 -136 179 -87 107 -125 161 -123 175 4 30 44 33 73 6 l23
-22 17 31 c47 92 187 92 237 0 23 -43 23 -85 0 -128 -19 -35 -72 -71 -105 -71
-15 0 -10 -11 25 -55 l43 -55 135 -1 135 -1 -122 -20 c-109 -19 -123 -23 -123
-41 0 -17 5 -19 33 -13 59 12 441 65 515 72 l74 7 -17 -39 c-9 -21 -41 -100
-72 -174 -31 -74 -57 -136 -59 -138 -1 -2 -120 33 -263 78 -216 67 -264 79
-282 70 -11 -7 -19 -13 -17 -15 7 -7 553 -175 569 -175 12 0 26 22 47 73 17
39 58 137 91 217 34 80 61 152 61 161 0 9 20 63 44 120 23 57 71 181 106 274
34 94 68 178 75 188 11 16 13 16 29 -2 31 -34 31 -88 -2 -181 -33 -94 -133
-342 -284 -704 -72 -172 -97 -241 -89 -249 7 -7 14 -7 20 -2 9 11 217 506 325
778 101 251 111 312 65 371 l-19 24 27 6 c23 5 716 99 1363 185 140 19 185 19
204 1z m-3164 -1135 c118 -78 449 -242 605 -299 371 -136 671 -187 979 -166
403 28 1044 160 1401 288 133 47 164 63 233 114 l53 39 -7 -28 c-11 -48 -52
-102 -107 -138 -200 -132 -1055 -336 -1571 -375 -400 -30 -804 79 -1400 377
-196 98 -220 114 -251 168 -26 45 -42 90 -29 82 5 -3 47 -31 94 -62z m204
-275 c14 0 31 -8 38 -18 7 -9 25 -25 41 -35 l27 -17 0 -140 c0 -137 0 -139
-26 -159 -55 -43 -156 -34 -184 18 -11 21 -14 373 -4 384 4 3 24 -3 45 -13 21
-11 49 -20 63 -20z m2896 -234 c0 -190 -1 -195 -22 -210 -28 -20 -108 -21
-153 -2 l-35 15 0 159 0 159 98 36 c53 19 100 36 105 36 4 1 7 -86 7 -193z
m-2567 68 c-4 -1 -38 -4 -75 -7 l-68 -5 0 39 0 38 76 -32 c41 -17 72 -32 67
-33z m723 -199 c128 -12 114 14 114 -214 0 -172 -2 -200 -17 -212 -24 -21
-132 -18 -166 4 l-27 17 0 211 c0 171 3 210 13 206 8 -3 45 -8 83 -12z"/>
<path d="M1282 3195 c-64 -28 -29 -61 68 -65 86 -3 89 -12 17 -54 -67 -39 -86
-61 -68 -79 23 -23 231 55 251 93 15 29 -8 69 -54 92 -54 28 -168 35 -214 13z"/>
<path d="M2618 3195 c-74 -24 -109 -83 -70 -118 26 -24 121 -65 180 -78 99
-23 91 26 -13 78 -27 14 -52 27 -55 30 -11 10 29 23 72 23 83 0 121 28 83 60
-23 19 -143 22 -197 5z"/>
<path d="M1800 3063 c0 -149 123 -255 280 -240 105 9 171 61 204 160 23 67 21
117 -3 117 -15 0 -19 -10 -24 -51 -17 -139 -122 -211 -263 -180 -91 21 -137
74 -152 173 -5 38 -12 54 -25 56 -14 3 -17 -4 -17 -35z"/>
<path d="M3233 2636 c-104 -173 -285 -317 -526 -417 -99 -41 -97 -48 10 -24
318 72 486 206 538 427 8 34 13 63 12 65 -2 1 -17 -22 -34 -51z"/>
<path d="M830 2668 c0 -26 28 -114 51 -163 12 -27 52 -80 88 -116 83 -83 192
-138 358 -180 116 -29 185 -35 108 -9 -217 73 -442 238 -556 408 -27 41 -49
68 -49 60z"/>
</g>
</svg>
